<svg width="120" height="36" viewBox="0 0 120 36" fill="none" xmlns="http://www.w3.org/2000/svg">
<g clip-path="url(#clip0)">
<path fill-rule="evenodd" clip-rule="evenodd" d="M4.77887 7.82409H5.89256L8.58397 0.791748H2.08745L4.77887 7.82409ZM-0.0471191 32.9729V35.5343H10.6257V32.9729H8.58397V10.1061H2.08745V32.9729H-0.0471191Z" fill="#2D2D2D"/>
<path d="M22.7841 15.0427H26.1252V10.1527H22.7841V4.37781H16.2876V10.1527H12.9001V15.0427H16.2876V36.1863L22.7841 34.5563V15.0427Z" fill="#2D2D2D"/>
<path fill-rule="evenodd" clip-rule="evenodd" d="M34.2459 7.82409H35.3596L38.051 0.791748H31.5545L34.2459 7.82409ZM29.4199 32.9729V35.5343H40.0928V32.9729H38.051V10.1061H31.5545V32.9729H29.4199Z" fill="#2D2D2D"/>
<path fill-rule="evenodd" clip-rule="evenodd" d="M59.675 11.3169C58.4685 10.3389 56.566 9.54721 54.1994 9.54721C46.1252 9.54721 43.0161 16.207 43.0161 22.727C43.0161 30.8305 46.6356 35.9069 54.1994 35.9069C57.7725 35.9069 60.2319 34.4166 61.0672 33.8577L66.1252 35.7671V0.0931396H59.5822C59.6286 0.0931396 59.675 3.26002 59.675 11.3169ZM59.675 20.3984V25.5213C59.675 29.2005 57.6333 30.6908 54.5706 30.6908C51.7864 30.6908 49.5126 29.5265 49.5126 22.5407C49.5126 16.3933 52.1112 14.903 54.8491 14.903C57.6797 14.903 59.675 16.5796 59.675 20.3984Z" fill="#2D2D2D"/>
<path fill-rule="evenodd" clip-rule="evenodd" d="M78.051 24.8228H93.2714V21.656C93.2714 15.3222 89.9768 9.96643 82.645 9.96643C76.0093 9.96643 71.3689 14.7633 71.3689 23.0065C71.3689 31.2032 76.0093 36.0466 82.645 36.0466C84.7796 36.0466 88.3062 35.8138 92.0649 35.0686V28.828C88.2134 29.9457 86.8213 30.6443 82.5986 30.6443C79.8144 30.6443 78.2366 28.5486 78.051 24.8228ZM82.5058 14.9962C84.9652 14.9962 86.4501 16.3468 86.5893 20.1657H78.1902C78.3295 16.3468 79.9536 14.9962 82.5058 14.9962Z" fill="#2D2D2D"/>
<path d="M104.362 12.2019L98.4221 9.96643C98.4221 9.96643 98.4221 27.1049 98.4221 35.5809H104.919V19.4671C104.919 16.5331 107.285 15.1359 109.837 15.1359C112.39 15.1359 113.689 16.3002 113.689 19.4671V36.1864L120.185 34.5563V18.2096C120.185 13.0867 116.752 9.96643 110.905 9.96643C107.842 9.96643 105.94 10.5719 104.362 12.2019Z" fill="#2D2D2D"/>
</g>
<defs>
<clipPath id="clip0">
<rect width="120" height="36" fill="white"/>
</clipPath>
</defs>
</svg>
