<svg width="64" height="19" viewBox="0 0 64 19" fill="none" xmlns="http://www.w3.org/2000/svg">
<g clip-path="url(#clip0)">
<path fill-rule="evenodd" clip-rule="evenodd" d="M2.52215 4.12936H3.10993L4.5304 0.417847H1.10168L2.52215 4.12936ZM-0.0249023 17.4023V18.7542H5.60799V17.4023H4.5304V5.33376H1.10168V17.4023H-0.0249023Z" fill="#808080"/>
<path d="M12.0247 7.93927H13.788V5.35841H12.0247V2.31055H8.59594V5.35841H6.80811V7.93927H8.59594V19.0984L12.0247 18.2381V7.93927Z" fill="#808080"/>
<path fill-rule="evenodd" clip-rule="evenodd" d="M18.0744 4.12936H18.6622L20.0826 0.417847H16.6539L18.0744 4.12936ZM15.5273 17.4023V18.7542H21.1602V17.4023H20.0826V5.33376H16.6539V17.4023H15.5273Z" fill="#808080"/>
<path fill-rule="evenodd" clip-rule="evenodd" d="M31.4953 5.97287C30.8586 5.4567 29.8544 5.03885 28.6054 5.03885C24.344 5.03885 22.7031 8.55372 22.7031 11.9949C22.7031 16.2717 24.6134 18.9509 28.6054 18.9509C30.4912 18.9509 31.7892 18.1643 32.2301 17.8694L34.8996 18.8771V0.0491943H31.4464C31.4708 0.0491943 31.4953 1.7206 31.4953 5.97287ZM31.4953 10.7659V13.4696C31.4953 15.4114 30.4177 16.198 28.8013 16.198C27.3319 16.198 26.1318 15.5835 26.1318 11.8965C26.1318 8.65204 27.5033 7.86549 28.9483 7.86549C30.4422 7.86549 31.4953 8.75036 31.4953 10.7659Z" fill="#808080"/>
<path fill-rule="evenodd" clip-rule="evenodd" d="M41.1937 13.101H49.2267V11.4295C49.2267 8.08672 47.4878 5.26007 43.6183 5.26007C40.1161 5.26007 37.667 7.79177 37.667 12.1423C37.667 16.4684 40.1161 19.0246 43.6183 19.0246C44.7448 19.0246 46.6061 18.9017 48.5899 18.5085V15.2148C46.5572 15.8047 45.8224 16.1734 43.5938 16.1734C42.1243 16.1734 41.2916 15.0673 41.1937 13.101ZM43.5448 7.91466C44.8428 7.91466 45.6265 8.62747 45.7 10.643H41.2671C41.3406 8.62747 42.1978 7.91466 43.5448 7.91466Z" fill="#808080"/>
<path d="M55.0797 6.43989L51.9448 5.26007C51.9448 5.26007 51.9448 14.3053 51.9448 18.7788H55.3735V10.2743C55.3735 8.72579 56.6226 7.9884 57.9696 7.9884C59.3166 7.9884 60.0023 8.60289 60.0023 10.2743V19.0984L63.431 18.2381V9.61065C63.431 6.9069 61.6187 5.26007 58.5329 5.26007C56.9165 5.26007 55.9123 5.57961 55.0797 6.43989Z" fill="#808080"/>
</g>
<defs>
<clipPath id="clip0">
<rect width="63.3333" height="19" fill="white"/>
</clipPath>
</defs>
</svg>
