<svg width="64" height="19" viewBox="0 0 64 19" fill="none" xmlns="http://www.w3.org/2000/svg">
<g clip-path="url(#clip0)">
<path fill-rule="evenodd" clip-rule="evenodd" d="M2.52215 4.12948H3.10993L4.5304 0.417969H1.10168L2.52215 4.12948ZM-0.0249023 17.4024V18.7543H5.60799V17.4024H4.5304V5.33388H1.10168V17.4024H-0.0249023Z" fill="#505050"/>
<path d="M12.0249 7.93927H13.7882V5.35841H12.0249V2.31055H8.59618V5.35841H6.80835V7.93927H8.59618V19.0984L12.0249 18.2381V7.93927Z" fill="#505050"/>
<path fill-rule="evenodd" clip-rule="evenodd" d="M18.0744 4.12948H18.6622L20.0826 0.417969H16.6539L18.0744 4.12948ZM15.5273 17.4024V18.7543H21.1602V17.4024H20.0826V5.33388H16.6539V17.4024H15.5273Z" fill="#505050"/>
<path fill-rule="evenodd" clip-rule="evenodd" d="M31.4953 5.97275C30.8586 5.45658 29.8544 5.03872 28.6054 5.03872C24.344 5.03872 22.7031 8.5536 22.7031 11.9947C22.7031 16.2716 24.6134 18.9508 28.6054 18.9508C30.4912 18.9508 31.7892 18.1642 32.2301 17.8693L34.8996 18.877V0.0490723H31.4464C31.4708 0.0490723 31.4953 1.72048 31.4953 5.97275ZM31.4953 10.7658V13.4695C31.4953 15.4113 30.4177 16.1978 28.8013 16.1978C27.3319 16.1978 26.1318 15.5834 26.1318 11.8964C26.1318 8.65192 27.5033 7.86537 28.9483 7.86537C30.4422 7.86537 31.4953 8.75024 31.4953 10.7658Z" fill="#505050"/>
<path fill-rule="evenodd" clip-rule="evenodd" d="M41.1937 13.1009H49.2267V11.4295C49.2267 8.08666 47.4878 5.26001 43.6183 5.26001C40.1161 5.26001 37.667 7.7917 37.667 12.1423C37.667 16.4683 40.1161 19.0246 43.6183 19.0246C44.7448 19.0246 46.6061 18.9017 48.5899 18.5084V15.2147C46.5572 15.8046 45.8224 16.1733 43.5938 16.1733C42.1243 16.1733 41.2916 15.0673 41.1937 13.1009ZM43.5448 7.9146C44.8428 7.9146 45.6265 8.62741 45.7 10.6429H41.2671C41.3406 8.62741 42.1978 7.9146 43.5448 7.9146Z" fill="#505050"/>
<path d="M55.0799 6.43983L51.9451 5.26001C51.9451 5.26001 51.9451 14.3053 51.9451 18.7788H55.3738V10.2742C55.3738 8.72573 56.6228 7.98834 57.9698 7.98834C59.3168 7.98834 60.0026 8.60283 60.0026 10.2742V19.0983L63.4313 18.238V9.61059C63.4313 6.90684 61.619 5.26001 58.5331 5.26001C56.9167 5.26001 55.9126 5.57954 55.0799 6.43983Z" fill="#505050"/>
</g>
<defs>
<clipPath id="clip0">
<rect width="63.3333" height="19" fill="white"/>
</clipPath>
</defs>
</svg>
